<svg xmlns="http://www.w3.org/2000/svg" viewBox="0 0 50 50"><path fill="#FFF" d="M45 1H5C2.8 1 1 2.8 1 5v40c0 2.2 1.8 4 4 4h40c2.2 0 4-1.8 4-4V5C49 2.8 47.2 1 45 1z"/><path fill="#625673" d="M32.8 49h-5.8 -5.8c0 0 0-3.5 0-5.8 -7.9 1.7-10.1-4.3-10.1-4.3 -1.4-2.9-2.9-4.3-2.9-4.3 -2.9-1.7 0-1.4 0-1.4 2.9 0 4.3 2.9 4.3 2.9 2.6 4.3 7.1 3.6 8.6 2.9 0-1.4 0.6-3.6 1.4-4.3 -6.3-0.7-11.5-4.3-11.5-11.5s1.4-8.6 2.9-10.1c-0.3-0.7-1.4-3.3 0-7.2 0 0 2.9 0 5.8 4.3 1.4-1.4 5.8-1.4 7.2-1.4 1.4 0 5.8 0 7.2 1.4 2.9-4.3 5.8-4.3 5.8-4.3 1.6 3.9 0.3 6.5 0 7.2 1.4 1.4 2.9 2.9 2.9 10.1s-5.2 10.8-11.5 11.5c0.9 0.7 1.4 3.2 1.4 4.3L32.8 49 32.8 49z"/></svg>
