<svg xmlns="http://www.w3.org/2000/svg" viewBox="0 0 50 50"><path d="M45 1H5C2.8 1 1 2.8 1 5v40c0 2.2 1.8 4 4 4h40c2.2 0 4-1.8 4-4V5C49 2.8 47.2 1 45 1z" fill="#fff"/><path d="M30 27c0 0-2-1.2-2-2 0 0-0.5-1.8 1-3 1.5-1.2 3-3 3-5 0-2.3-1-5-3-6h3l2.4-1c0 0-7.1 0-9.4 0 -4.2 0-8 3.3-8 7 0 3.7 2.8 6.6 7.1 6.6 0.3 0 0.6 0 0.9 0 -0.3 0.5-0.5 1.1-0.5 1.7 0 1 0.8 2 1.5 2.7 -0.5 0-1.4 0-2 0 -5.2 0-9 2.6-9 6 0 3.4 4.9 6 10 6 5.9 0 10-3 10-7C35 30.3 32.5 28.7 30 27zM26 23c-2.4 0-5.6-2.9-6-6 -0.4-3.1 1.6-6.1 4-6 2.4 0.1 4.6 2.9 5 6.1C29.4 20.2 28 23 26 23zM25 38c-3.6 0-7-1.3-7-4 0-2.7 3.4-5 7-5 0.8 0 2 0 2 0 1 0 2.9 0.9 4 2 1 1 1 2.7 1 3C32 37 30 38 25 38z" fill="#dd4b39"/></svg>
