<?xml version="1.0" encoding="UTF-8"?><!DOCTYPE svg PUBLIC "-//W3C//DTD SVG 1.1//EN" "http://www.w3.org/Graphics/SVG/1.1/DTD/svg11.dtd"><svg xmlns="http://www.w3.org/2000/svg" xmlns:xlink="http://www.w3.org/1999/xlink"><defs><path d="M47.924 41.933c-3.25 0-5.886 2.62-5.886 5.85 0 3.232 2.635 5.852 5.886 5.852h.295a.39.39 0 0 1 .391.402v.56a.403.403 0 0 1-.387.403h-34.14C6.5 55 .351 48.887.351 41.347V13.653C.35 6.113 6.5 0 14.083 0H48.61v41.15c0 .433-.343.783-.686.783z" id="icon-livro-sem-apego-a"/><mask id="icon-livro-sem-apego-d" x="0" y="0" width="48.259" height="55" fill="#fff"><use xlink:href="#icon-livro-sem-apego-a"/></mask><path d="M.35 41.205v.141C.35 48.89 3.95 55 11.534 55h36.293v-1.365h.294c-3.25 0-5.885-2.62-5.885-5.851 0-3.232 2.635-5.851 5.885-5.851h-.294v-.59" id="icon-livro-sem-apego-b"/><mask id="icon-livro-sem-apego-e" x="0" y="0" width="47.769" height="13.795" fill="#fff"><use xlink:href="#icon-livro-sem-apego-b"/></mask><path d="M.743 41.205v.141c0 7.543 2.617 13.069 10.201 13.069h-.784v-.78h.294c-3.25 0-5.885-2.62-5.885-5.851 0-3.232 2.635-5.851 5.885-5.851h-.294v-.59" id="icon-livro-sem-apego-c"/><mask id="icon-livro-sem-apego-f" x="0" y="0" width="10.201" height="13.209" fill="#fff"><use xlink:href="#icon-livro-sem-apego-c"/></mask><path d="M47.573 41.933c-3.25 0-5.885 2.62-5.885 5.85 0 3.232 2.635 5.852 5.885 5.852h.295a.39.39 0 0 1 .391.402v.56a.403.403 0 0 1-.387.403h-34.14C6.148 55 0 48.887 0 41.347V13.653C0 6.113 6.149 0 13.732 0H48.26v41.15c0 .433-.343.783-.686.783z" id="icon-livro-sem-apego-g"/><path d="M4.891.747C6.821.694 7.698-.339 8.688.303c1.998 1.296-.03 4.614-.03 4.614-.192.365-.605.877-.94 1.125 0 0-.988 1.004-2.775 1.042a4.924 4.924 0 0 1-.104 0c-1.787-.038-2.775-1.042-2.775-1.042-.335-.248-.748-.76-.94-1.125 0 0-2.028-3.318-.03-4.614.99-.642 1.867.391 3.797.444z" id="icon-livro-sem-apego-i"/></defs><symbol id="icon-fb" viewBox="0 0 50 50"><path d="M45 1H5C2.8 1 1 2.8 1 5v40c0 2.2 1.8 4 4 4h40c2.2 0 4-1.8 4-4V5c0-2.2-1.8-4-4-4z" fill="#fff"/><path d="M32 26l1-5h-5v-4c0-1.5.8-2 3-2h2v-5h-4c-4.1 0-7 2.4-7 7v4h-5v5h5v14h6V26h4z" fill="#3b5998"/></symbol><symbol id="icon-gg" viewBox="0 0 50 50"><path d="M45 1H5C2.8 1 1 2.8 1 5v40c0 2.2 1.8 4 4 4h40c2.2 0 4-1.8 4-4V5c0-2.2-1.8-4-4-4z" fill="#fff"/><path d="M30 27s-2-1.2-2-2c0 0-.5-1.8 1-3s3-3 3-5c0-2.3-1-5-3-6h3l2.4-1H25c-4.2 0-8 3.3-8 7s2.8 6.6 7.1 6.6h.9c-.3.5-.5 1.1-.5 1.7 0 1 .8 2 1.5 2.7h-2c-5.2 0-9 2.6-9 6s4.9 6 10 6c5.9 0 10-3 10-7 0-2.7-2.5-4.3-5-6zm-4-4c-2.4 0-5.6-2.9-6-6-.4-3.1 1.6-6.1 4-6 2.4.1 4.6 2.9 5 6.1.4 3.1-1 5.9-3 5.9zm-1 15c-3.6 0-7-1.3-7-4s3.4-5 7-5h2c1 0 2.9.9 4 2 1 1 1 2.7 1 3 0 3-2 4-7 4z" fill="#dd4b39"/></symbol><symbol id="icon-livro-sem-apego" viewBox="0 0 49 55"><title>Livro sem Apego - &#xED;cone</title><g fill="none" fill-rule="evenodd"><use stroke="#625673" mask="url(#icon-livro-sem-apego-d)" stroke-width="2.751" stroke-linecap="round" stroke-linejoin="round" fill="#625673" xlink:href="#icon-livro-sem-apego-a"/><use stroke="#625673" mask="url(#icon-livro-sem-apego-e)" stroke-width="4.323" stroke-linecap="round" stroke-linejoin="round" fill="#FEFAEB" xlink:href="#icon-livro-sem-apego-b"/><use stroke="#625673" mask="url(#icon-livro-sem-apego-f)" stroke-width="4.323" stroke-linecap="round" stroke-linejoin="round" fill="#625673" xlink:href="#icon-livro-sem-apego-c"/><path fill="#625673" fill-rule="nonzero" d="M47.434 40.568H.348v1.364h47.086zm-5.296 3.9H1.328v1.365h40.81zm0 4.096H3.683v1.365h38.455z"/><g transform="translate(.35)"><mask id="icon-livro-sem-apego-h" fill="#fff"><use xlink:href="#icon-livro-sem-apego-g"/></mask><path d="M1.962 47.592V17.554c0-7.54 3.402-14.49 10.986-14.49v36.679c-7.984 0-9.925 3.682-10.986 7.85z" fill="#7A6B8F" opacity=".4" mask="url(#icon-livro-sem-apego-h)"/></g><path fill="#F5807F" d="M37.668 0h5.611v6.421l-2.661 2.234-2.95-2.234z"/><path d="M18.759 17.652c0-2.209-1.567-4-3.5-4s-3.5 1.791-3.5 4m25 0c0-2.209-1.567-4-3.5-4s-3.5 1.791-3.5 4" stroke="#FEFAEB" stroke-width="1.375" stroke-linecap="round" stroke-linejoin="round"/><g transform="translate(19.873 23.704)"><mask id="icon-livro-sem-apego-j" fill="#fff"><use xlink:href="#icon-livro-sem-apego-i"/></mask><use fill="#F5807F" xlink:href="#icon-livro-sem-apego-i"/><ellipse fill="#F04658" mask="url(#icon-livro-sem-apego-j)" cx="4.93" cy="5.907" rx="4.172" ry="2.388"/></g></g></symbol><symbol id="icon-no-img" viewBox="0 0 96 96"><path d="M80 4H16C9.4 4 4 9.4 4 16v64c0 6.6 5.4 12 12 12h64c6.6 0 12-5.4 12-12V16c0-6.6-5.4-12-12-12zM12 80V16c0-2.2 1.8-4 4-4h64c2.2 0 4 1.8 4 4v42.3l-20-20L18.3 84H16c-2.2 0-4-1.8-4-4zm68 4H29.7L64 49.7l20 20V80c0 2.2-1.8 4-4 4z"/><path d="M32 20c-6.6 0-12 5.4-12 12s5.4 12 12 12 12-5.4 12-12-5.4-12-12-12zm0 16c-2.2 0-4-1.8-4-4s1.8-4 4-4 4 1.8 4 4-1.8 4-4 4z"/></symbol><symbol id="icon-profile-photo" viewBox="0 0 512 512"><circle fill="#ececec" cx="256" cy="256" r="253.4"/><circle cx="256" cy="213.4" r="73.5" fill="#FFF"/><path d="M184.7 286.8c.1 0 .1.1.1.1s-.1 0-.1.1l-.1-.1s0-.1.1-.1zM327.5 286.9c0 .1-.1.1-.2.2-.1 0-.1-.1-.2-.1l.2-.2c.1 0 .1 0 .2.1z" fill="#FFF"/><path d="M360.8 296.9v74.2H150.9v-74.2c0-19.2 15.5-34.7 34.7-34.7h4.1c15 20.8 39.1 33.4 66.2 33.4s51.2-12.6 66.2-33.4h3.8c19.4 0 34.9 15.5 34.9 34.7z" fill="#FFF"/></symbol><symbol id="icon-search" viewBox="0 0 17.4 21.3"><title>&#xCD;cone de Pesquisa</title><g transform="rotate(55 3.935 16.802)"><ellipse transform="rotate(90 -2.038 8.526)" fill="none" stroke="#625673" stroke-width="1.6" cx="-2" cy="8.5" rx="6.5" ry="6.4"/><path fill="#625673" d="M3.8 7.7h10.4c.4 0 .8.4.8.8s-.4.8-.8.8H3.8V7.7z"/></g></symbol></svg>